<svg xmlns="http://www.w3.org/2000/svg" version="1" viewBox="0 0 24 24" enable-background="new 0 0 24 24">
    <path style="text-indent:0;text-align:start;line-height:normal;text-transform:none;block-progression:tb;-inkscape-font-specification:Bitstream Vera Sans" d="M 4.9375 2 L 1.96875 2.5 L 3.15625 9.375 L 6.09375 8.875 L 5.59375 5.84375 C 6.0029181 5.7245824 6.4622246 5.6130994 7 5.5 L 7 7.09375 C 7 8.94375 7.7071527 10.707153 9 12 L 10 15.40625 L 8.03125 19 C 7.9874038 19.030482 7.9500962 19.071827 7.90625 19.09375 L 3.1875 22 L 6.90625 22 L 8.90625 20.6875 C 9.10625 20.5875 9.3 20.3875 9.5 20.1875 L 11.59375 17.8125 L 12.09375 17.59375 C 13.19375 17.19375 14.30625 17.19375 15.40625 17.59375 C 15.80625 17.69375 16.09375 18.1 16.09375 18.5 L 16.09375 22 L 18.09375 22 L 18.09375 18.59375 C 18.09375 17.29375 17.29375 16.2125 16.09375 15.8125 L 14.46875 15.25 L 15.25 11.71875 C 16.378764 10.456148 17 8.8168269 17 7.09375 L 17 5.5 C 17.507572 5.6067473 17.950618 5.6997591 18.34375 5.8125 L 17.84375 8.875 L 20.78125 9.40625 L 21.96875 2.5 L 19 2 L 18.53125 4.84375 C 17.036706 4.4173804 14.833772 4 12 4 C 9.1209756 4 6.900809 4.4423772 5.40625 4.875 L 4.9375 2 z M 12 5 C 13.112654 5 14.097946 5.0809062 15 5.1875 A 1.0001 1.0001 0 0 0 15 5.40625 L 15 7.09375 C 15 8.44375 14.500903 9.6865973 13.59375 10.59375 L 13.1875 11 L 10.8125 11 L 10.40625 10.59375 C 9.4990973 9.6865973 9 8.44375 9 7.09375 L 9 5.40625 A 1.0001 1.0001 0 0 0 9 5.1875 C 9.9020537 5.0809062 10.887346 5 12 5 z M 12 6 C 10.895431 6 10 6.8954305 10 8 C 10 9.1045695 10.895431 10 12 10 C 13.104569 10 14 9.1045695 14 8 C 14 6.8954305 13.104569 6 12 6 z" overflow="visible" enable-background="accumulate" font-family="Bitstream Vera Sans" fill="#b63638"/>
</svg>